<svg width="33" height="33" viewBox="0 0 33 33" fill="none" xmlns="http://www.w3.org/2000/svg">
<path d="M33 16.5C33 25.6147 25.6121 33 16.5 33C7.38794 33 0 25.6147 0 16.5C0 7.3906 7.38794 0 16.5 0C25.6121 0 33 7.3906 33 16.5ZM16.5 19.8266C14.8097 19.8266 13.4395 21.1968 13.4395 22.8871C13.4395 24.5774 14.8097 25.9476 16.5 25.9476C18.1903 25.9476 19.5605 24.5774 19.5605 22.8871C19.5605 21.1968 18.1903 19.8266 16.5 19.8266ZM13.5943 8.82577L14.0879 17.8742C14.111 18.2976 14.4611 18.629 14.8851 18.629H18.1149C18.5389 18.629 18.889 18.2976 18.9121 17.8742L19.4057 8.82577C19.4306 8.36843 19.0665 7.98387 18.6085 7.98387H14.3915C13.9335 7.98387 13.5694 8.36843 13.5943 8.82577Z" fill="#F84F4F"/>
</svg>
